<svg xml:space="preserve" viewBox="0 0 100 100" y="0px" x="0px" xmlns:xlink="http://www.w3.org/1999/xlink" xmlns="http://www.w3.org/2000/svg" id="圖層_1" version="1.1" style="height: 100%; width: 100%; background: rgb(255, 255, 255);" width="233px" height="233px"><g class="ldl-scale" style="transform-origin: 50% 50%; transform: rotate(0deg) scale(0.59, 0.59);"><g class="ldl-ani"><g class="ldl-layer"><g class="ldl-ani"><g><g class="ldl-layer"><g class="ldl-ani" style="transform-origin: 50px 50px; transform: scale(0.91); animation: 2.22222s linear -1.20193s infinite normal forwards running breath-b8c7e216-dde7-468e-9113-90eb5701d122;"><rect height="26.7" width="70.2" fill="#E0E0E0" y="54.2" x="14.9" style="fill: rgb(224, 224, 224);"></rect></g></g><g class="ldl-layer"><g class="ldl-ani" style="transform-origin: 50px 50px; transform: scale(0.91); animation: 2.22222s linear -1.24831s infinite normal forwards running breath-b8c7e216-dde7-468e-9113-90eb5701d122;"><polygon points="83.3,30 16.7,30 7.5,54.2 92.5,54.2" fill="#77A4BD" style="fill: rgb(119, 164, 189);"></polygon></g></g><g class="ldl-layer"><g class="ldl-ani" style="transform-origin: 50px 50px; transform: scale(0.91); animation: 2.22222s linear -1.29469s infinite normal forwards running breath-b8c7e216-dde7-468e-9113-90eb5701d122;"><rect height="2.2" width="82.7" fill="#E0E0E0" y="80.8" x="9.3" style="fill: rgb(224, 224, 224);"></rect></g></g><g class="ldl-layer"><g class="ldl-ani" style="transform-origin: 50px 50px; transform: scale(0.91); animation: 2.22222s linear -1.34106s infinite normal forwards running breath-b8c7e216-dde7-468e-9113-90eb5701d122;"><rect height="21.2" width="37.5" fill="#333333" y="59.7" x="21.3" style="fill: rgb(51, 51, 51);"></rect></g></g></g></g></g><g class="ldl-layer"><g class="ldl-ani"><g><g class="ldl-layer"><g class="ldl-ani" style="transform-origin: 50px 50px; transform: scale(0.91); animation: 2.22222s linear -1.38744s infinite normal forwards running breath-b8c7e216-dde7-468e-9113-90eb5701d122;"><path d="M38.1,76h1.1c0.3,0,0.6,0.3,0.6,0.6v1.8v1.8c0,0.3-0.3,0.6-0.6,0.6h-1.1c-0.3,0-0.6-0.3-0.6-0.6v-1.8v-1.8 C37.5,76.2,37.8,76,38.1,76z" style="fill: rgb(0, 0, 0);"></path></g></g><g class="ldl-layer"><g class="ldl-ani" style="transform-origin: 50px 50px; transform: scale(0.91); animation: 2.22222s linear -1.43382s infinite normal forwards running breath-b8c7e216-dde7-468e-9113-90eb5701d122;"><path d="M28.3,76h-1.1c-0.3,0-0.6,0.3-0.6,0.6v1.8v1.8c0,0.3,0.3,0.6,0.6,0.6h1.1c0.3,0,0.6-0.3,0.6-0.6v-1.8v-1.8 C28.9,76.2,28.7,76,28.3,76z" style="fill: rgb(0, 0, 0);"></path></g></g><g class="ldl-layer"><g class="ldl-ani" style="transform-origin: 50px 50px; transform: scale(0.91); animation: 2.22222s linear -1.48019s infinite normal forwards running breath-b8c7e216-dde7-468e-9113-90eb5701d122;"><path d="M40.4,78.4H26.1c-0.3,0-0.6-0.3-0.6-0.6V73c0-0.8,0.7-1.5,1.5-1.5h12.6c0.8,0,1.5,0.7,1.5,1.5v4.8 C41.1,78.1,40.8,78.4,40.4,78.4z" fill="#E15B64" style="fill: rgb(225, 91, 100);"></path></g></g><g class="ldl-layer"><g class="ldl-ani" style="transform-origin: 50px 50px; transform: scale(0.91); animation: 2.22222s linear -1.52657s infinite normal forwards running breath-b8c7e216-dde7-468e-9113-90eb5701d122;"><path d="M37.4,67.1h-8.2c-0.7,0-1.2,0.6-1.2,1.2v3.1h10.7v-3.1C38.6,67.7,38,67.1,37.4,67.1z" fill="#FFFFFF" opacity="0.3" style="fill: rgb(255, 255, 255);"></path></g></g><g class="ldl-layer"><g class="ldl-ani" style="transform-origin: 50px 50px; transform: scale(0.91); animation: 2.22222s linear -1.57295s infinite normal forwards running breath-b8c7e216-dde7-468e-9113-90eb5701d122;"><path d="M37.7,66.2h-8.9c-1.1,0-1.9,0.9-1.9,1.9v3.3h1v-3.1c0-0.7,0.6-1.2,1.2-1.2h8.2c0.7,0,1.2,0.6,1.2,1.2v3.1h1 v-3.3C39.6,67.1,38.7,66.2,37.7,66.2z" fill="#E15B64" style="fill: rgb(225, 91, 100);"></path></g></g><g class="ldl-layer"><g class="ldl-ani" style="transform-origin: 50px 50px; transform: scale(0.91); animation: 2.22222s linear -1.61932s infinite normal forwards running breath-b8c7e216-dde7-468e-9113-90eb5701d122;"><circle r="1.1" cy="73.3" cx="27.3" fill="#FFFFFF" style="fill: rgb(255, 255, 255);"></circle></g></g><g class="ldl-layer"><g class="ldl-ani" style="transform-origin: 50px 50px; transform: scale(0.91); animation: 2.22222s linear -1.6657s infinite normal forwards running breath-b8c7e216-dde7-468e-9113-90eb5701d122;"><circle r="1.1" cy="73.3" cx="39.1" fill="#FFFFFF" style="fill: rgb(255, 255, 255);"></circle></g></g><g class="ldl-layer"><g class="ldl-ani" style="transform-origin: 50px 50px; transform: scale(0.91); animation: 2.22222s linear -1.71208s infinite normal forwards running breath-b8c7e216-dde7-468e-9113-90eb5701d122;"><line y2="74" x2="37.2" y1="74" x1="29.3" stroke-miterlimit="10" stroke-linecap="round" stroke-width="0.4899" stroke="#FFFFFF" fill="none" style="stroke: rgb(255, 255, 255);"></line></g></g><g class="ldl-layer"><g class="ldl-ani" style="transform-origin: 50px 50px; transform: scale(0.91); animation: 2.22222s linear -1.75845s infinite normal forwards running breath-b8c7e216-dde7-468e-9113-90eb5701d122;"><line y2="75.4" x2="37.2" y1="75.4" x1="29.3" stroke-miterlimit="10" stroke-linecap="round" stroke-width="0.4899" stroke="#FFFFFF" fill="none" style="stroke: rgb(255, 255, 255);"></line></g></g><g class="ldl-layer"><g class="ldl-ani" style="transform-origin: 50px 50px; transform: scale(0.91); animation: 2.22222s linear -1.80483s infinite normal forwards running breath-b8c7e216-dde7-468e-9113-90eb5701d122;"><line y2="76.8" x2="37.2" y1="76.8" x1="29.3" stroke-miterlimit="10" stroke-linecap="round" stroke-width="0.4899" stroke="#FFFFFF" fill="none" style="stroke: rgb(255, 255, 255);"></line></g></g></g></g></g><g class="ldl-layer"><g class="ldl-ani"><g><g class="ldl-layer"><g class="ldl-ani" style="transform-origin: 50px 50px; transform: scale(0.91); animation: 2.22222s linear -1.85121s infinite normal forwards running breath-b8c7e216-dde7-468e-9113-90eb5701d122;"><rect height="21.2" width="11.2" fill="#66503A" y="59.7" x="66.6" style="fill: rgb(102, 80, 58);"></rect></g></g><g class="ldl-layer"><g class="ldl-ani" style="transform-origin: 50px 50px; transform: scale(0.91); animation: 2.22222s linear -1.89758s infinite normal forwards running breath-b8c7e216-dde7-468e-9113-90eb5701d122;"><rect height="6" width="3" fill="#333333" y="61.5" x="68.4" style="fill: rgb(51, 51, 51);"></rect></g></g><g class="ldl-layer"><g class="ldl-ani" style="transform-origin: 50px 50px; transform: scale(0.91); animation: 2.22222s linear -1.94396s infinite normal forwards running breath-b8c7e216-dde7-468e-9113-90eb5701d122;"><rect height="6" width="3" fill="#333333" y="61.5" x="73.1" style="fill: rgb(51, 51, 51);"></rect></g></g><g class="ldl-layer"><g class="ldl-ani" style="transform-origin: 50px 50px; transform: scale(0.91); animation: 2.22222s linear -1.99034s infinite normal forwards running breath-b8c7e216-dde7-468e-9113-90eb5701d122;"><circle r="0.9" cy="70.5" cx="75.9" fill="#E0E0E0" style="fill: rgb(224, 224, 224);"></circle></g></g></g></g></g><g class="ldl-layer"><g class="ldl-ani"><g><g class="ldl-layer"><g class="ldl-ani" style="transform-origin: 50px 50px; transform: scale(0.91); animation: 2.22222s linear -2.03671s infinite normal forwards running breath-b8c7e216-dde7-468e-9113-90eb5701d122;"><polygon points="42.9,17 26.9,30.2 26.9,46 42.9,46 58.9,46 58.9,30.2" fill="#E0E0E0" style="fill: rgb(224, 224, 224);"></polygon></g></g><g class="ldl-layer"><g class="ldl-ani" style="transform-origin: 50px 50px; transform: scale(0.91); animation: 2.22222s linear -2.08309s infinite normal forwards running breath-b8c7e216-dde7-468e-9113-90eb5701d122;"><rect height="11.4" width="15.5" fill="#333333" y="31.5" x="35.2" style="fill: rgb(51, 51, 51);"></rect></g></g><g class="ldl-layer"><g class="ldl-ani" style="transform-origin: 50px 50px; transform: scale(0.91); animation: 2.22222s linear -2.12947s infinite normal forwards running breath-b8c7e216-dde7-468e-9113-90eb5701d122;"><rect height="11.4" width="2.3" fill="#E0E0E0" y="31.5" x="41.8" style="fill: rgb(224, 224, 224);"></rect></g></g><g class="ldl-layer"><g class="ldl-ani" style="transform-origin: 50px 50px; transform: scale(0.91); animation: 2.22222s linear -2.17585s infinite normal forwards running breath-b8c7e216-dde7-468e-9113-90eb5701d122;"><polygon points="42.9,17 30.9,26.9 54.9,26.9" fill="#77A4BD" style="fill: rgb(119, 164, 189);"></polygon></g></g><g class="ldl-layer"><g class="ldl-ani" style="transform-origin: 50px 50px; transform: scale(0.91); animation: 2.22222s linear -2.22222s infinite normal forwards running breath-b8c7e216-dde7-468e-9113-90eb5701d122;"><polyline points="63.5,34.1 42.9,17 22.3,34.1" stroke-miterlimit="10" stroke-width="3.8636" stroke="#A0C8D7" fill="none" style="stroke: rgb(160, 200, 215);"></polyline></g></g></g></g></g><metadata xmlns:d="https://loading.io/stock/">
<d:name>garage</d:name>
<d:tags>building,garage,house,home,duplex,car,villa</d:tags>
<d:license>by</d:license>
<d:slug>35i85d</d:slug>
</metadata></g></g></svg>